<?xml version="1.0" standalone="no"?>
<!DOCTYPE svg PUBLIC "-//W3C//DTD SVG 20010904//EN"
 "http://www.w3.org/TR/2001/REC-SVG-20010904/DTD/svg10.dtd">
<svg version="1.0" xmlns="http://www.w3.org/2000/svg"
 width="500.000000pt" height="500.000000pt" viewBox="0 0 500.000000 500.000000"
 preserveAspectRatio="xMidYMid meet">
<metadata>
Created by potrace 1.14, written by Peter Selinger 2001-2017
</metadata>
<g transform="translate(0.000000,500.000000) scale(0.100000,-0.100000)"
fill="#000000" stroke="none">
<path d="M1081 4669 c-155 -104 -366 -301 -502 -470 -147 -181 -291 -422 -360
-603 -11 -28 -24 -60 -29 -71 -35 -76 -113 -370 -125 -470 -4 -27 -8 -57 -10
-65 -29 -114 -23 -563 10 -730 3 -14 10 -52 16 -85 104 -576 481 -1160 978
-1512 262 -186 533 -312 836 -387 61 -16 69 -17 165 -35 146 -27 241 -35 415
-35 137 0 300 9 350 19 11 3 37 7 57 10 193 27 480 119 683 220 337 167 565
346 825 651 43 49 146 195 191 269 186 306 316 684 345 1005 3 30 7 66 10 80
5 31 5 338 -1 400 -28 312 -103 583 -240 868 -171 354 -425 661 -738 895 l-92
69 -3 -1339 -2 -1338 -158 -88 c-86 -48 -177 -99 -202 -113 -116 -66 -289
-164 -330 -186 -275 -154 -677 -382 -684 -389 -9 -8 -58 16 -161 79 -51 31
-1065 626 -1142 669 -22 13 -43 29 -45 36 -2 7 -4 610 -4 1340 1 731 -1 1330
-4 1332 -3 2 -25 -10 -49 -26z"/>
</g>
</svg>
